<?xml version="1.0" encoding="UTF-8" standalone="no"?>
<!-- Created with Inkscape (http://www.inkscape.org/) -->

<svg
   width="139.59593mm"
   height="124.85151mm"
   viewBox="0 0 139.59593 124.85151"
   version="1.1"
   id="svg1"
   xml:space="preserve"
   inkscape:version="1.4 (86a8ad7, 2024-10-11)"
   sodipodi:docname="pt.svg"
   xmlns:inkscape="http://www.inkscape.org/namespaces/inkscape"
   xmlns:sodipodi="http://sodipodi.sourceforge.net/DTD/sodipodi-0.dtd"
   xmlns="http://www.w3.org/2000/svg"
   xmlns:svg="http://www.w3.org/2000/svg"><sodipodi:namedview
     id="namedview1"
     pagecolor="#ffffff"
     bordercolor="#666666"
     borderopacity="1.0"
     inkscape:showpageshadow="2"
     inkscape:pageopacity="0.0"
     inkscape:pagecheckerboard="0"
     inkscape:deskcolor="#d1d1d1"
     inkscape:document-units="mm"
     inkscape:zoom="0.23371528"
     inkscape:cx="-419.31362"
     inkscape:cy="459.96137"
     inkscape:window-width="1366"
     inkscape:window-height="705"
     inkscape:window-x="1432"
     inkscape:window-y="-8"
     inkscape:window-maximized="1"
     inkscape:current-layer="layer1" /><defs
     id="defs1" /><g
     inkscape:label="Calque 1"
     inkscape:groupmode="layer"
     id="layer1"
     transform="translate(-31.913477,-100.37104)"><path
       style="fill:#f0b429;fill-opacity:1"
       d="m 141.80313,224.09884 c 13.68457,-3.57249 24.81695,-14.69072 28.40415,-28.36804 2.42328,-9.23952 1.45547,-18.62915 -2.83009,-27.4572 -5.79735,-11.94228 -17.08753,-20.07746 -30.51295,-21.98622 -17.5761,-2.49888 -35.76006,8.36033 -42.073953,25.12597 -2.07366,5.50633 -2.64401,9.09304 -2.45382,15.43119 0.20033,6.67583 1.1499,10.72981 3.76954,16.0932 5.545853,11.3544 16.190753,19.49028 28.570243,21.83617 4.28996,0.81295 12.69619,0.48161 17.12688,-0.67507 z"
       id="path6" /><path
       style="fill:#01579b;fill-opacity:1"
       d="m 119.28415,143.21768 c -0.12935,-0.12935 -0.23519,-1.41372 -0.23519,-2.85415 0,-2.59349 -0.0154,-2.63704 -1.5875,-4.47715 -1.01207,-1.18465 -1.5875,-2.19605 -1.5875,-2.7903 0,-0.88227 0.0935,-0.9321 1.74895,-0.9321 h 1.74896 l 0.71031,-2.38125 c 3.91262,-13.11657 4.99106,-16.46744 5.37652,-16.70567 0.24695,-0.15262 0.48591,-0.24059 0.53101,-0.19548 0.0913,0.0913 5.75925,18.93614 5.75925,19.14838 0,0.0737 0.79375,0.13402 1.76389,0.13402 1.73021,0 1.76389,0.0205 1.76389,1.07345 0,0.78561 -0.42567,1.52852 -1.5875,2.77061 -1.44278,1.54245 -1.5875,1.85769 -1.5875,3.45807 v 1.76092 l -3.57059,0.43274 c -1.96383,0.23802 -4.76735,0.73883 -6.23004,1.11293 -3.09896,0.79258 -2.72459,0.73736 -3.01696,0.44498 z"
       id="path13" /><path
       style="fill:#01579b;fill-opacity:1"
       d="m 69.836457,188.58842 c -8.20752,-0.89253 -10.46159,-0.99959 -21.43125,-1.01788 l -12.25903,-0.0205 -0.001,-14.1993 -10e-4,-14.19931 -2.11535,-1.70962 c -1.70714,-1.3797 -2.11535,-1.9073 -2.11535,-2.73402 v -1.02442 h 2.99862 2.99861 v -8.01357 -8.01358 l -1.55917,-1.59962 c -0.99321,-1.01898 -1.60146,-1.98377 -1.67569,-2.65795 -0.11471,-1.04175 -0.0883,-1.05998 1.68645,-1.16326 l 1.80297,-0.10493 2.78314,-9.36114 c 1.53072,-5.14863 2.89558,-9.54509 3.03302,-9.7699 0.48355,-0.79096 0.96688,0.31097 2.76165,6.2962 0.98776,3.29403 2.26888,7.53695 2.84693,9.42873 l 1.05099,3.43958 h 1.74874 c 1.64643,0 1.74874,0.0535 1.74874,0.91387 0,0.57264 -0.59276,1.60772 -1.5875,2.77207 l -1.5875,1.85818 v 7.98766 7.98766 h 2.99862 2.99861 v 1.0063 c 0,0.80995 -0.41298,1.33075 -2.11667,2.66924 l -2.11667,1.66294 v 5.62104 5.62104 h 4.23334 4.23333 v -4.29834 c 0,-3.54548 -0.12107,-4.54956 -0.69124,-5.73264 -1.56338,-3.24397 -1.73342,-9.10467 -0.37842,-13.04305 2.08721,-6.06659 5.65907,-9.78576 13.4117,-13.96484 4.63417,-2.49807 6.4484,-3.71384 8.07491,-5.41121 l 1.19057,-1.24244 -0.77862,-1.60841 c -0.67901,-1.40266 -0.72553,-1.76929 -0.3636,-2.86594 0.22827,-0.69164 0.71758,-1.44648 1.08736,-1.67741 0.52914,-0.33046 0.6723,-0.83384 0.67217,-2.3635 -1.7e-4,-1.90058 -0.0402,-1.97804 -1.80623,-3.49896 -2.27113,-1.95586 -3.11459,-3.75306 -3.12474,-6.65806 -0.009,-2.65088 0.53912,-4.09482 2.29208,-6.03513 1.345,-1.48876 2.96979,-2.041426 2.44808,-0.83271 -2.1461,4.9722 0.18916,10.00073 5.30626,11.42598 1.35124,0.37636 2.8868,0.20966 5.37986,-0.58404 1.09497,-0.3486 1.05021,0.529 -0.0965,1.89176 -1.23809,1.47138 -4.19765,2.87672 -6.05821,2.87672 h -1.51823 v 1.44596 c 0,1.15174 0.21534,1.64712 1.05833,2.43459 0.85058,0.79457 1.05833,1.2791 1.05833,2.46836 0,0.81385 -0.27781,1.95453 -0.61736,2.53484 l -0.61736,1.05512 2.13626,1.99793 c 1.40505,1.31406 3.60054,2.77204 6.4142,4.25954 5.242623,2.77163 8.376563,5.07818 10.490403,7.72084 1.71381,2.14255 3.72526,5.81295 3.6951,6.74264 -0.01,0.30855 -1.38547,1.51307 -3.05658,2.6767 -3.74027,2.60442 -7.348933,6.1378 -10.283243,10.06874 -2.57091,3.44411 -6.02815,10.20013 -6.93606,13.55425 -0.65663,2.42578 -0.9416,2.6733 -1.98776,1.72655 -0.35286,-0.31934 -1.43298,-0.65666 -2.40026,-0.7496 -1.64149,-0.15773 -1.84157,-0.0861 -3.00219,1.0745 l -1.24348,1.24348 -0.0418,5.41514 c -0.023,2.97833 -0.0175,5.55064 0.0122,5.71626 0.14732,0.82221 -0.43324,1.63587 -1.1407,1.59871 -0.42349,-0.0223 -4.89748,-0.4893 -9.9422,-1.03789 z"
       id="path11" /><path
       style="fill:#0b111d;fill-opacity:1"
       d="m 145.5073,186.84454 v -1.41112 h -6.87421 -6.87421 l -0.0932,-11.20069 -0.0931,-11.20069 -1.32292,-0.10949 -1.32292,-0.10949 v 12.72129 12.7213 h 8.29028 8.29028 z"
       id="path10" /><path
       style="fill:#ffffff;fill-opacity:1"
       d="m 128.02929,188.51883 c -0.0934,-0.2433 -0.12807,-6.31549 -0.0771,-13.49375 l 0.0926,-13.05138 h 2.11666 2.11667 l 0.0931,11.37709 0.0931,11.37708 h 6.87428 6.87428 v 2.11667 2.11666 h -9.0069 c -6.89525,0 -9.04671,-0.10371 -9.17666,-0.44237 z"
       id="path9" /></g></svg>
